# xmcd
#
# Track frame offsets: 
#        150
#        7612
#        31157
#        56962
#        63792
#        83407
#        107785
#        132915
#        137095
#        172235
#        192912
#        200662
#
# Disc length: 2913 seconds
#
# Revision: 6
# Processed by: cddbd v1.5.2PL0 Copyright (c) Steve Scherf et al.
# Submitted via: ExactAudioCopyFreeDBPlugin 1.0
#
DISCID=9e0b5f0c
DTITLE=Claudio Baglioni - Strada Facendo
DYEAR=1981
DGENRE=Italiana
TTITLE0=Uno
TTITLE1=Via
TTITLE2=I Vecchi
TTITLE3=Due
TTITLE4=Notti
TTITLE5=Ragazze Dell'Est
TTITLE6=Strada Facendo
TTITLE7=Tre
TTITLE8=Fotografie
TTITLE9=Ora Che Ho Te
TTITLE10=Quattro
TTITLE11=Buona Fortuna
EXTD=YEAR: 1981
EXTT0=
EXTT1=
EXTT2=
EXTT3=
EXTT4=
EXTT5=
EXTT6=
EXTT7=
EXTT8=
EXTT9=
EXTT10=
EXTT11=
PLAYORDER=
